<svg xmlns="http://www.w3.org/2000/svg" viewBox="0 0 280 370" fill="none" role="img" aria-label="Futura Teck">
  <defs>
    <linearGradient id="logoGradient" x1="100%" y1="0%" x2="0%" y2="100%">
        <stop offset="0%" style="stop-color:#ff0066;stop-opacity:1" />
        <stop offset="100%" style="stop-color:#800020;stop-opacity:1" />
    </linearGradient>
  </defs>

  <!-- ══════════════════════════════════════════
       10 ESTRELLAS · anillo centro (140,140) r=102
       Estrella: radio exterior 10, interior 3.8
  ══════════════════════════════════════════ -->
  <g fill="url(#logoGradient)">
    <!-- 1 · top        (140, 38) -->
    <polygon points="140,28 142.2,34.9 149.5,35 143.6,39.2 145.9,47.1 140,42.8 134.1,47.1 136.4,39.2 130.5,35 137.8,34.9"/>
    <!-- 2 · upper-right (200, 58) -->
    <polygon points="200,48 202.2,54.9 209.5,55 203.6,59.2 205.9,67.1 200,62.8 194.1,67.1 196.4,59.2 190.5,55 197.8,54.9"/>
    <!-- 3 · right-upper (237, 109) -->
    <polygon points="237,99 239.2,105.9 246.5,106 240.6,110.2 242.9,118.1 237,113.8 231.1,118.1 233.4,110.2 227.5,106 234.8,105.9"/>
    <!-- 4 · right-lower (237, 171) -->
    <polygon points="237,161 239.2,167.9 246.5,168 240.6,172.2 242.9,180.1 237,175.8 231.1,180.1 233.4,172.2 227.5,168 234.8,167.9"/>
    <!-- 5 · lower-right (200, 221) -->
    <polygon points="200,211 202.2,217.9 209.5,218 203.6,222.2 205.9,230.1 200,225.8 194.1,230.1 196.4,222.2 190.5,218 197.8,217.9"/>
    <!-- 6 · bottom      (140, 241) -->
    <polygon points="140,231 142.2,237.9 149.5,238 143.6,242.2 145.9,250.1 140,245.8 134.1,250.1 136.4,242.2 130.5,238 137.8,237.9"/>
    <!-- 7 · lower-left  ( 80, 221) -->
    <polygon points="80,211 82.2,217.9 89.5,218 83.6,222.2 85.9,230.1 80,225.8 74.1,230.1 76.4,222.2 70.5,218 77.8,217.9"/>
    <!-- 8 · left-lower  ( 43, 171) -->
    <polygon points="43,161 45.2,167.9 52.5,168 46.6,172.2 48.9,180.1 43,175.8 37.1,180.1 39.4,172.2 33.5,168 40.8,167.9"/>
    <!-- 9 · left-upper  ( 43, 109) -->
    <polygon points="43,99 45.2,105.9 52.5,106 46.6,110.2 48.9,118.1 43,113.8 37.1,118.1 39.4,110.2 33.5,106 40.8,105.9"/>
    <!-- 10· upper-left  ( 80,  58) -->
    <polygon points="80,48 82.2,54.9 89.5,55 83.6,59.2 85.9,67.1 80,62.8 74.1,67.1 76.4,59.2 70.5,55 77.8,54.9"/>
  </g>

  <!-- ══════════════════════════════════════════
       PEGASO · líneas de contorno elegantes
  ══════════════════════════════════════════ -->
  <g stroke="url(#logoGradient)" stroke-width="2.6" stroke-linecap="round" stroke-linejoin="round" fill="none">

    <!-- ── CUERPO (lomo) ── -->
    <path d="M 88,143
             C 92,132 104,122 120,116
             C 136,110 155,109 172,113
             C 186,116 194,124 195,134"/>

    <!-- ── CUERPO (vientre) ── -->
    <path d="M 92,162
             C 106,169 124,172 142,172
             C 160,172 176,167 187,160"/>

    <!-- ── NALGA (cierre posterior) ── -->
    <path d="M 88,143 C 85,152 87,162 92,168"/>

    <!-- ── PECHO (cierre anterior) ── -->
    <path d="M 195,134 C 196,143 193,153 187,160"/>

    <!-- ── CUELLO ── -->
    <path d="M 194,130
             C 200,117 205,102 207,88
             C 209,78 207,68 200,63"/>

    <!-- ── CABEZA · cráneo / testuz ── -->
    <path d="M 200,63
             C 195,58 187,59 183,65
             C 179,72 181,81 187,86"/>

    <!-- ── CABEZA · hocico y quijada ── -->
    <path d="M 207,88
             C 213,85 218,80 217,73
             C 216,66 207,62 200,66"/>
    <path d="M 187,86
             C 185,91 187,97 193,99
             C 199,101 206,97 208,90"/>

    <!-- ── OLLARES ── -->
    <path d="M 211,79 C 213,81 213,85 211,86"/>

    <!-- ── OJO ── -->
    <ellipse cx="193" cy="68" rx="2.5" ry="2" fill="url(#logoGradient)" stroke="none"/>

    <!-- ── CRINES (ondulantes sobre cuello) ── -->
    <path d="M 201,66 C 197,74 195,84 198,93"/>
    <path d="M 198,70 C 193,78 191,88 194,97"/>
    <path d="M 195,75 C 190,84 189,93 192,101"/>

    <!-- ═══════════════════════════════════════
         ALAS · desde cruz, abriéndose arriba-izquierda
    ═══════════════════════════════════════ -->
    <!-- Borde inferior del ala (plano principal) -->
    <path d="M 156,114
             C 144,101 129,89 112,79
             C 96,69 77,64 68,73
             C 61,80 66,91 77,97"/>
    <!-- Plumas interiores -->
    <path d="M 156,114 C 146,99 134,85 120,75"/>
    <path d="M 156,114 C 150,97 147,80 147,68"/>
    <path d="M 156,114 C 155,97 159,81 163,70"/>
    <path d="M 156,114 C 160,98 168,84 177,75"/>

    <!-- ═══════════════════════════════════════
         PATAS DELANTERAS (extendidas hacia delante)
    ═══════════════════════════════════════ -->
    <!-- Delantera derecha -->
    <path d="M 186,163
             C 188,176 187,191 184,204
             C 182,212 181,218 183,222"/>
    <path d="M 180,222 C 181,224 186,224 187,222 L 187,221"/>
    <!-- Delantera izquierda -->
    <path d="M 175,165
             C 176,178 174,192 170,205
             C 168,213 167,218 169,222"/>
    <path d="M 166,222 C 167,224 172,224 173,222 L 173,221"/>

    <!-- ═══════════════════════════════════════
         PATAS TRASERAS (extendidas hacia atrás)
    ═══════════════════════════════════════ -->
    <!-- Trasera derecha -->
    <path d="M 97,164
             C 92,177 86,192 82,205
             C 80,213 80,219 84,222"/>
    <path d="M 81,222 C 82,224 87,224 88,222 L 88,221"/>
    <!-- Trasera izquierda -->
    <path d="M 110,166
             C 106,179 100,193 97,206
             C 95,214 95,219 99,222"/>
    <path d="M 96,222 C 97,224 102,224 103,222 L 103,221"/>

    <!-- ═══════════════════════════════════════
         COLA (ondulante, hacia la izquierda)
    ═══════════════════════════════════════ -->
    <path d="M 89,148
             C 77,141 63,130 52,118
             C 43,108 41,98 48,92
             C 55,86 67,93 76,106"/>
    <path d="M 90,155
             C 76,149 62,138 51,126
             C 44,118 43,109 50,104"/>
    <path d="M 90,161
             C 77,157 64,147 54,134"/>

  </g>

  <!-- ══════════════════════════════════════════
       TEXTO · FUTURA + Teck
  ══════════════════════════════════════════ -->
  <text
    x="140" y="302"
    font-family="'Inter','Arial Black',Arial,sans-serif"
    font-size="62"
    font-weight="900"
    text-anchor="middle"
    letter-spacing="-1"
    fill="#31000b">FUTURA</text>

  <text
    x="140" y="360"
    font-family="'Inter',Arial,sans-serif"
    font-size="52"
    font-weight="400"
    text-anchor="middle"
    fill="#4a4a4a">Teck</text>

</svg>
